<?xml version="1.0" encoding="utf-8"?>
<!-- Generator: Adobe Illustrator 16.0.0, SVG Export Plug-In . SVG Version: 6.00 Build 0)  -->
<!DOCTYPE svg PUBLIC "-//W3C//DTD SVG 1.1//EN" "http://www.w3.org/Graphics/SVG/1.1/DTD/svg11.dtd">
<svg version="1.1" id="Ebene_1" xmlns="http://www.w3.org/2000/svg" xmlns:xlink="http://www.w3.org/1999/xlink" x="0px" y="0px"
	 width="96px" height="32px" viewBox="0 0 96 32" enable-background="new 0 0 96 32" xml:space="preserve">
<g>
	<defs>
		<rect id="SVGID_1_" x="-0.242" y="0.242" width="96" height="32"/>
	</defs>
	<clipPath id="SVGID_2_">
		<use xlink:href="#SVGID_1_"  overflow="visible"/>
	</clipPath>
	<g display="none" clip-path="url(#SVGID_2_)">
		<path display="inline" fill="#FFFFFF" d="M51.35,10.61h-6.72v3.983h6.528v3.168H44.63v6.48h-3.312v-16.8H51.35V10.61z
			 M60.727,24.578c-0.896,0-1.744-0.136-2.543-0.408c-0.785-0.271-1.465-0.656-2.041-1.152c-0.576-0.512-1.023-1.127-1.344-1.848
			c-0.32-0.736-0.479-1.544-0.479-2.424V7.442h3.288v11.04c0,0.863,0.248,1.56,0.744,2.088c0.512,0.512,1.304,0.768,2.375,0.768
			c1.072,0,1.856-0.256,2.353-0.768c0.513-0.528,0.769-1.225,0.769-2.088V7.442h3.312v11.304c0,0.88-0.16,1.688-0.479,2.424
			c-0.32,0.721-0.769,1.336-1.345,1.848c-0.575,0.496-1.264,0.881-2.063,1.152C62.487,24.442,61.639,24.578,60.727,24.578z
			 M76.578,24.578c-1.663,0-3.063-0.368-4.199-1.104c-1.137-0.752-1.936-1.769-2.4-3.049l2.832-1.656
			c0.305,0.801,0.776,1.433,1.416,1.896c0.641,0.448,1.456,0.672,2.448,0.672c0.912,0,1.584-0.168,2.017-0.504
			c0.447-0.336,0.672-0.76,0.672-1.271c0-0.448-0.192-0.848-0.576-1.2c-0.385-0.353-1.4-0.769-3.049-1.248
			c-1.151-0.336-2.08-0.704-2.783-1.104c-0.704-0.399-1.264-0.92-1.68-1.56c-0.4-0.64-0.601-1.424-0.601-2.353
			c0-0.56,0.097-1.127,0.288-1.703c0.208-0.592,0.576-1.16,1.104-1.705c0.528-0.543,1.168-0.943,1.92-1.199s1.488-0.385,2.209-0.385
			c1.359,0,2.551,0.337,3.576,1.009c1.039,0.655,1.848,1.575,2.424,2.76l-2.785,1.608c-0.672-1.44-1.743-2.16-3.215-2.16
			c-0.672,0-1.209,0.16-1.608,0.48c-0.399,0.319-0.601,0.719-0.601,1.199c0,0.512,0.209,0.936,0.625,1.272
			c0.432,0.336,1.287,0.696,2.567,1.079c1.567,0.496,2.704,0.961,3.408,1.393c0.72,0.432,1.248,0.969,1.584,1.607
			c0.336,0.641,0.504,1.361,0.504,2.16c0,0.769-0.151,1.473-0.456,2.112c-0.288,0.624-0.704,1.16-1.248,1.608
			c-0.544,0.432-1.191,0.768-1.943,1.008C78.275,24.467,77.459,24.578,76.578,24.578z M88.73,21.074h7.08v3.168H85.418v-16.8h10.271
			v3.168H88.73v3.575h6.359v3.121H88.73V21.074z"/>
	</g>
	<g id="g20" transform="translate(100.9482,43.0325)" clip-path="url(#SVGID_2_)">
		<path id="path22" fill="#FFC40C" d="M-68.675-24.458c-0.548,3.838-2.313,7.07-5.242,9.664c-2.328,2.061-5.052,3.328-8.135,3.846
			c-0.447,0.075-0.9,0.122-1.351,0.177c-0.079,0.009-0.173,0.018-0.278,0.026c-1.786,0.13-3.027-0.106-3.027-0.106
			c-1.583-0.305-2.952-1.143-2.321-3.248c0.042-0.128,0.087-0.256,0.131-0.383c0.591-1.641,1.309-2.996,1.983-4.056
			c0.009-0.014,0.018-0.028,0.026-0.042c0.036-0.055,0.07-0.108,0.105-0.162c0.655-0.978,1.411-1.903,2.264-2.774
			c0.389-0.39,1.37-1.331,2.605-2.235c0.664-0.473,1.356-0.904,2.08-1.293c0.229-0.105,0.867-0.324,1.695,0.017
			c0.739,0.552,1.605,0.757,2.562,0.639c1.917-0.237,3.258-1.953,3.047-3.855c-0.176-1.568-1.382-2.758-2.854-3.037
			c-0.141-0.041-0.307-0.063-0.504-0.061h-0.002c-0.303-0.012-0.615,0.012-0.926,0.08c-0.288,0.063-0.573,0.166-0.845,0.303
			c-1.161,0.549-1.672,1.569-1.827,2.267v0.001c-0.215,0.973-1.019,1.179-1.019,1.179c-0.684,0.163-1.51,0.482-2.287,0.823
			c-0.873,0.365-1.723,0.781-2.547,1.248c-0.036,0.019-0.057,0.03-0.057,0.03l-0.001,0.002c-0.301,0.171-0.599,0.349-0.894,0.533
			l-0.002,0.001c0,0-4.816,2.89-7.165,6.893c0,0.002-0.001,0.005-0.004,0.007c-0.127,0.188-0.252,0.377-0.375,0.568
			c-2.24,3.023-4.913,0.13-3.428-4.882c0.013-0.046,0.027-0.091,0.041-0.138c0.015-0.046,0.029-0.092,0.045-0.14
			c0.01-0.033,0.021-0.066,0.032-0.1c0.243-0.734,0.513-1.419,0.799-2.054c0.183-0.402,0.379-0.8,0.592-1.192
			c0.228-0.425,0.471-0.837,0.726-1.24c0.482-0.711,1.511-2.15,2.735-3.418c0.466-0.467,0.957-0.911,1.474-1.336
			c0.042-0.029,0.101-0.066,0.177-0.1c0,0,0.002-0.001,0.004-0.002c0.136-0.059,0.322-0.102,0.55-0.064
			c0.102,0.024,0.208,0.073,0.307,0.164c0.125,0.111,0.463,0.329,0.879,0.521c0.24,0.133,0.519,0.233,0.823,0.295
			c0.269,0.064,0.538,0.096,0.781,0.066c0,0,0-0.002,0.001-0.002c0.386-0.01,0.789-0.083,1.186-0.229
			c0.661-0.225,1.217-0.625,1.622-1.141c0.01-0.013,0.02-0.024,0.029-0.037c0.033-0.041,0.063-0.081,0.088-0.121
			c0.485-0.697,0.712-1.58,0.583-2.515c-0.163-1.177-0.96-2.153-2.001-2.641c-0.593-0.277-1.263-0.396-1.938-0.304
			c-2.16,0.126-2.922,2.055-3.033,2.756c-0.001,0.01-0.003,0.017-0.004,0.025c-0.004,0.016-0.007,0.03-0.01,0.047
			c-0.164,0.842-0.779,1.119-0.779,1.119c-0.661,0.242-1.371,0.602-2.048,0.992c-0.593,0.328-1.165,0.682-1.714,1.059l-0.001-0.002
			c0,0-2.158,1.4-3.514,3.082c-0.018,0.021-0.035,0.04-0.053,0.061c-0.045,0.052-0.093,0.103-0.139,0.154
			c-1.159,1.199-1.896-0.233-1.107-2.826c0.024-0.08,0.049-0.16,0.075-0.239c0.007-0.021,0.013-0.041,0.02-0.062
			c0.771-2.243,2.031-4.252,3.778-6.025c1.399-1.421,3.024-2.537,4.86-3.348c3.323-1.464,6.77-1.834,10.313-1.016
			c2.159,0.499,4.085,1.337,5.768,2.512c1.682,1.176,3.122,2.688,4.31,4.535C-68.896-31.908-68.126-28.304-68.675-24.458"/>
	</g>
	<path id="path18_1_" clip-path="url(#SVGID_2_)" fill="#0D4BA0" d="M83.773,20.225h2.594v8.172h-2.594V20.225z M86.367,19.022
		h-2.594v-1.976h2.594V19.022z M79.476,24.998c-0.158,0.347-0.448,0.521-0.87,0.521c-0.421,0-0.706-0.175-0.853-0.521
		c-0.106-0.232-0.158-0.621-0.158-1.17c0-0.548,0.052-0.938,0.158-1.169c0.146-0.349,0.432-0.523,0.853-0.523
		c0.422,0,0.712,0.175,0.87,0.523c0.094,0.23,0.142,0.621,0.142,1.169C79.617,24.377,79.569,24.766,79.476,24.998 M79.697,20.588
		c-0.528-0.527-1.159-0.79-1.896-0.79c-0.834,0-1.502,0.253-2.008,0.758c-0.357,0.359-0.585,0.807-0.681,1.344
		c-0.073,0.369-0.11,1.013-0.11,1.929c0,0.917,0.037,1.561,0.11,1.928c0.096,0.538,0.323,0.986,0.681,1.344
		c0.506,0.506,1.169,0.759,1.991,0.759c0.748,0,1.358-0.236,1.833-0.711v0.616c0,0.864-0.458,1.296-1.375,1.296
		c-0.61,0-1.097-0.179-1.454-0.536l-1.611,1.611c0.737,0.737,1.802,1.107,3.191,1.107c1.15,0,2.077-0.325,2.782-0.974
		c0.706-0.646,1.06-1.478,1.06-2.489v-7.888h-2.513V20.588z M73.342,26.215h0.902v2.182h-1.375c-0.875,0-1.551-0.273-2.023-0.822
		c-0.412-0.464-0.617-1.027-0.617-1.691v-8.74h2.592v8.55C72.82,26.041,72.995,26.215,73.342,26.215 M66.15,20.225h2.593v8.172
		H66.15V20.225z M66.15,17.047h2.593v1.976H66.15V17.047z M62.121,25.614c-0.158,0.359-0.46,0.538-0.902,0.538
		s-0.742-0.179-0.9-0.538c-0.116-0.273-0.174-0.764-0.174-1.47s0.058-1.197,0.174-1.471c0.158-0.357,0.458-0.538,0.9-0.538
		s0.744,0.181,0.902,0.538c0.115,0.273,0.173,0.765,0.173,1.471S62.236,25.341,62.121,25.614 M64.096,20.571
		c-0.516-0.516-1.201-0.773-2.055-0.773c-0.79,0-1.423,0.236-1.896,0.711v-3.366h-2.593v11.254h2.513V27.7
		c0.527,0.528,1.181,0.791,1.961,0.791c0.864,0,1.555-0.259,2.07-0.774c0.368-0.368,0.605-0.911,0.711-1.628
		c0.053-0.37,0.08-1.017,0.08-1.944s-0.027-1.575-0.08-1.943C64.701,21.482,64.464,20.941,64.096,20.571 M80.15,12.424h0.9v2.18
		h-1.375c-0.873,0-1.549-0.273-2.023-0.82c-0.411-0.464-0.616-1.027-0.616-1.692V3.35h2.593v8.553
		C79.629,12.249,79.802,12.424,80.15,12.424 M73.101,11.412c0,0.41-0.084,0.695-0.252,0.854c-0.222,0.209-0.565,0.315-1.028,0.315
		c-0.568,0-0.854-0.236-0.854-0.711c0-0.453,0.274-0.681,0.823-0.681h1.311V11.412z M71.946,6.006c-0.726,0-1.317,0.082-1.77,0.244
		c-0.453,0.164-0.896,0.462-1.327,0.895l1.611,1.611c0.38-0.379,0.832-0.568,1.359-0.568c0.854,0,1.28,0.354,1.28,1.059v0.221
		h-1.724c-0.947,0-1.681,0.254-2.196,0.76c-0.464,0.442-0.696,1.011-0.696,1.706c0,0.833,0.251,1.499,0.751,2
		c0.501,0.501,1.179,0.751,2.031,0.751c0.749,0,1.381-0.258,1.896-0.774v0.694h2.529V9.088C75.692,7.033,74.444,6.006,71.946,6.006
		 M65.008,11.822c-0.158,0.359-0.459,0.537-0.9,0.537c-0.443,0-0.743-0.178-0.901-0.537c-0.116-0.273-0.174-0.764-0.174-1.47
		s0.058-1.196,0.174-1.47c0.158-0.359,0.458-0.537,0.901-0.537c0.441,0,0.742,0.178,0.9,0.537c0.115,0.273,0.174,0.764,0.174,1.47
		S65.123,11.549,65.008,11.822 M66.984,6.78c-0.518-0.517-1.202-0.774-2.055-0.774c-0.791,0-1.424,0.237-1.898,0.712V3.35h-2.592
		v11.254h2.514v-0.694c0.527,0.526,1.18,0.791,1.96,0.791c0.863,0,1.554-0.259,2.071-0.776c0.368-0.367,0.605-0.91,0.711-1.627
		c0.053-0.369,0.078-1.017,0.078-1.944c0-0.927-0.025-1.575-0.078-1.944C67.59,7.691,67.353,7.149,66.984,6.78 M56.409,11.822
		c-0.148,0.359-0.448,0.537-0.9,0.537c-0.453,0-0.754-0.178-0.901-0.537c-0.116-0.273-0.174-0.764-0.174-1.47
		s0.058-1.196,0.174-1.47c0.147-0.359,0.448-0.537,0.901-0.537c0.452,0,0.752,0.178,0.9,0.537c0.116,0.273,0.174,0.764,0.174,1.47
		S56.525,11.549,56.409,11.822 M58.243,7.097c-0.674-0.728-1.587-1.091-2.734-1.091c-1.149,0-2.061,0.363-2.735,1.091
		c-0.357,0.38-0.604,0.806-0.734,1.279c-0.132,0.475-0.198,1.134-0.198,1.977s0.066,1.503,0.198,1.976
		c0.131,0.475,0.377,0.9,0.734,1.281c0.675,0.727,1.586,1.091,2.735,1.091c1.147,0,2.061-0.364,2.734-1.091
		c0.358-0.381,0.603-0.807,0.734-1.281c0.132-0.473,0.197-1.133,0.197-1.976s-0.065-1.502-0.197-1.977
		C58.846,7.902,58.602,7.477,58.243,7.097 M50.183,12.424h0.9v2.18h-1.375c-0.875,0-1.549-0.273-2.023-0.82
		c-0.411-0.464-0.616-1.027-0.616-1.692V3.35h2.591v8.553C49.659,12.249,49.834,12.424,50.183,12.424 M42.848,11.207
		c-0.158,0.346-0.448,0.521-0.869,0.521c-0.422,0-0.706-0.176-0.854-0.521c-0.105-0.232-0.158-0.622-0.158-1.171
		c0-0.548,0.053-0.938,0.158-1.169c0.147-0.348,0.432-0.521,0.854-0.521c0.421,0,0.711,0.174,0.869,0.521
		c0.095,0.23,0.143,0.621,0.143,1.169C42.99,10.585,42.942,10.975,42.848,11.207 M43.069,6.797c-0.527-0.527-1.16-0.791-1.897-0.791
		c-0.832,0-1.501,0.254-2.007,0.758c-0.358,0.359-0.585,0.807-0.681,1.344c-0.073,0.369-0.11,1.012-0.11,1.929
		s0.037,1.561,0.11,1.929c0.096,0.537,0.322,0.986,0.681,1.344c0.506,0.506,1.17,0.759,1.991,0.759c0.748,0,1.359-0.237,1.834-0.712
		v0.617c0,0.863-0.459,1.295-1.376,1.295c-0.61,0-1.096-0.178-1.454-0.537l-1.611,1.613c0.737,0.737,1.802,1.105,3.192,1.105
		c1.148,0,2.076-0.323,2.782-0.973c0.705-0.647,1.059-1.477,1.059-2.488V6.101h-2.513V6.797z"/>
</g>
</svg>
