<?xml version="1.0" encoding="utf-8"?>
<!-- Generator: Adobe Illustrator 16.0.0, SVG Export Plug-In . SVG Version: 6.00 Build 0)  -->
<!DOCTYPE svg PUBLIC "-//W3C//DTD SVG 1.1//EN" "http://www.w3.org/Graphics/SVG/1.1/DTD/svg11.dtd">
<svg version="1.1" id="Ebene_1" xmlns="http://www.w3.org/2000/svg" xmlns:xlink="http://www.w3.org/1999/xlink" x="0px" y="0px"
	 width="32px" height="32px" viewBox="0 0 32 32" enable-background="new 0 0 32 32" xml:space="preserve">
<g id="g20" transform="translate(100.9482,43.0325)">
	<path id="path22" fill="#FFC40C" d="M-69.119-24.802c-0.55,3.843-2.317,7.08-5.249,9.677c-2.332,2.063-5.06,3.333-8.146,3.852
		c-0.447,0.075-0.901,0.122-1.353,0.177c-0.079,0.009-0.173,0.018-0.278,0.026c-1.788,0.13-3.031-0.106-3.031-0.106
		c-1.585-0.306-2.956-1.145-2.324-3.253c0.043-0.128,0.088-0.256,0.132-0.383c0.591-1.643,1.31-3,1.986-4.062
		c0.008-0.014,0.018-0.028,0.025-0.042c0.036-0.055,0.071-0.108,0.106-0.162c0.656-0.979,1.412-1.906,2.267-2.778
		c0.389-0.39,1.371-1.333,2.609-2.238c0.663-0.474,1.356-0.905,2.082-1.295c0.229-0.105,0.868-0.324,1.698,0.017
		c0.739,0.553,1.606,0.758,2.564,0.64c1.92-0.237,3.264-1.956,3.051-3.86c-0.176-1.571-1.383-2.762-2.857-3.042
		c-0.142-0.041-0.308-0.063-0.505-0.061h-0.002c-0.304-0.012-0.616,0.012-0.927,0.08c-0.29,0.063-0.575,0.167-0.848,0.303
		c-1.161,0.55-1.674,1.572-1.828,2.27v0.001c-0.216,0.974-1.021,1.181-1.021,1.181c-0.684,0.163-1.512,0.483-2.29,0.824
		c-0.874,0.366-1.724,0.782-2.549,1.25c-0.036,0.019-0.057,0.03-0.057,0.03l-0.001,0.002c-0.301,0.171-0.599,0.349-0.895,0.533
		l-0.002,0.001c0,0-4.823,2.894-7.175,6.902c0,0.002-0.001,0.005-0.004,0.007c-0.127,0.188-0.252,0.377-0.375,0.569
		c-2.243,3.027-4.919,0.13-3.433-4.889c0.013-0.046,0.027-0.091,0.041-0.138c0.015-0.046,0.029-0.092,0.045-0.14
		c0.01-0.033,0.021-0.066,0.032-0.1c0.243-0.735,0.514-1.421,0.8-2.057c0.183-0.403,0.38-0.801,0.593-1.194
		c0.229-0.425,0.472-0.838,0.727-1.242c0.483-0.712,1.513-2.153,2.738-3.423c0.467-0.467,0.958-0.912,1.476-1.337
		c0.042-0.029,0.101-0.067,0.177-0.1c0,0,0.002-0.001,0.004-0.002c0.136-0.059,0.322-0.102,0.551-0.064
		c0.102,0.024,0.208,0.073,0.307,0.165c0.125,0.111,0.464,0.329,0.881,0.522c0.24,0.133,0.519,0.234,0.824,0.295
		c0.27,0.064,0.539,0.096,0.782,0.066c0,0,0-0.002,0.002-0.002c0.387-0.01,0.79-0.083,1.187-0.229
		c0.662-0.225,1.219-0.625,1.624-1.142c0.011-0.013,0.02-0.024,0.029-0.037c0.033-0.041,0.063-0.081,0.089-0.121
		c0.486-0.698,0.712-1.583,0.583-2.518c-0.162-1.178-0.962-2.156-2.003-2.644c-0.593-0.278-1.264-0.396-1.941-0.304
		c-2.163,0.126-2.926,2.057-3.037,2.759c-0.001,0.01-0.003,0.017-0.004,0.025c-0.004,0.016-0.007,0.031-0.01,0.047
		c-0.165,0.843-0.781,1.121-0.781,1.121c-0.662,0.242-1.372,0.602-2.051,0.993c-0.594,0.329-1.166,0.683-1.716,1.06l-0.001-0.002
		c0,0-2.161,1.402-3.519,3.086c-0.018,0.021-0.035,0.04-0.053,0.061c-0.045,0.052-0.093,0.103-0.139,0.154
		c-1.16,1.201-1.899-0.233-1.108-2.83c0.024-0.081,0.049-0.161,0.075-0.24c0.007-0.021,0.013-0.041,0.02-0.062
		c0.771-2.246,2.034-4.258,3.784-6.034c1.4-1.423,3.028-2.541,4.867-3.352c3.328-1.466,6.779-1.836,10.327-1.017
		c2.162,0.5,4.09,1.339,5.776,2.515c1.684,1.177,3.125,2.691,4.314,4.542C-69.341-32.261-68.57-28.653-69.119-24.802"/>
</g>
</svg>
